<svg width="150" height="150" viewBox="0 0 150 150" fill="none" xmlns="http://www.w3.org/2000/svg">
  <rect width="150" height="150" rx="8" fill="#f3f4f6"/>
  <path d="M75 40c-19.33 0-35 15.67-35 35s15.67 35 35 35 35-15.67 35-35-15.67-35-35-35zm0 60c-13.81 0-25-11.19-25-25s11.19-25 25-25 25 11.19 25 25-11.19 25-25 25z" fill="#9ca3af"/>
  <path d="M75 60c-8.28 0-15 6.72-15 15s6.72 15 15 15 15-6.72 15-15-6.72-15-15-15zm0 20c-2.76 0-5-2.24-5-5s2.24-5 5-5 5 2.24 5 5-2.24 5-5 5z" fill="#9ca3af"/>
  <text x="75" y="125" text-anchor="middle" fill="#6b7280" font-family="Arial, sans-serif" font-size="12">AUDIO</text>
</svg>
